<?xml version='1.0' encoding='utf-8'?>
<svg xmlns="http://www.w3.org/2000/svg" width="1920" height="1080" viewBox="0 0 1920 1080" data-theme="light">
  <style>
        @font-face {
            font-family: 'Inter';
            src: url('assets/fonts/Inter-Regular.ttf') format('truetype');
            font-weight: 400;
            font-style: normal;
            font-display: swap;
        }
        @font-face {
            font-family: 'Inter';
            src: url('assets/fonts/Inter-Bold.ttf') format('truetype');
            font-weight: 600;
            font-style: normal;
            font-display: swap;
        }
        @font-face {
            font-family: 'Inter';
            src: url('assets/fonts/Inter-Bold.ttf') format('truetype');
            font-weight: 800;
            font-style: normal;
            font-display: swap;
        }
        
:root {
    --background: #f8fafc;
    --panel: #ffffff;
    --primary-text: #0f172a;
    --muted-text: #64748b;
    --inverse-text: #ffffff;
    --border: #e2e8f0;
    --shadow-color: #000000;
    --icon-pad-bg: #1e293b;
    --art-glow: #0891b2;
    --art-glow-opacity: 0.10;
    --art-sheen: #ffffff;
    --art-sheen-opacity: 0.34;
    --art-shadow: #0f172a;
    --art-shadow-opacity: 0.14;
    --art-muted-line: #94a3b8;
    --art-panel-tint: #f1f5f9;
    --font-family: 'Inter', 'Segoe UI', 'Kalam', Roboto, Helvetica, Arial, sans-serif;
    --radius-xl: 16px;
    --font-family-headline: 'Inter', 'Segoe UI', 'Kalam', Roboto, Helvetica, Arial, sans-serif;
    --font-family-body: 'Inter', 'Segoe UI', 'Kalam', Roboto, Helvetica, Arial, sans-serif;
    --font-heading: 'Inter', 'Segoe UI', 'Kalam', Roboto, Helvetica, Arial, sans-serif;
    --font-body: 'Inter', 'Segoe UI', 'Kalam', Roboto, Helvetica, Arial, sans-serif;
    --font-size-h1: 56px;
    --font-size-h2: 40px;
    --font-size-h3: 28px;
    --font-size-body: 24px;
    --font-size-caption: 18px;
    --secondary-text: var(--muted-text);
    --panel-border: var(--border);
    --font-weight-normal: 400;
    --font-weight-medium: 500;
    --font-weight-semibold: 600;
    --font-weight-bold: 700;
    --spacing-gutter-pct: 0.07;
    --spacing-top-pct: 0.15;
    --spacing-bottom-pct: 0.07;
    --spacing-title-y-pct: 0.055;
    --accent-1: #0891b2;
    --accent-2: #0284c7;
    --accent-3: #2563eb;
    --accent-4: #4f46e5;
    --accent-5: #7c3aed;
    --accent-6: #0d9488;
}
:root[data-theme="dark"] {
    --background: #0f172a;
    --panel: #1e293b;
    --primary-text: #f1f5f9;
    --muted-text: #94a3b8;
    --inverse-text: #0f172a;
    --border: #334155;
    --shadow-color: #000000;
    --icon-pad-bg: #1e293b;
    --art-glow: #7dd3fc;
    --art-glow-opacity: 0.18;
    --art-sheen: #ffffff;
    --art-sheen-opacity: 0.18;
    --art-shadow: #000000;
    --art-shadow-opacity: 0.28;
    --art-muted-line: #64748b;
    --art-panel-tint: #1e293b;
    --accent-1: #22d3ee;
    --accent-2: #38bdf8;
    --accent-3: #60a5fa;
    --accent-4: #818cf8;
    --accent-5: #a78bfa;
    --accent-6: #2dd4bf;
}
:root[data-theme="light"] {
    --background: #f8fafc;
    --panel: #ffffff;
    --primary-text: #0f172a;
    --muted-text: #64748b;
    --inverse-text: #ffffff;
    --border: #e2e8f0;
    --shadow-color: #000000;
    --icon-pad-bg: #1e293b;
    --art-glow: #0891b2;
    --art-glow-opacity: 0.10;
    --art-sheen: #ffffff;
    --art-sheen-opacity: 0.34;
    --art-shadow: #0f172a;
    --art-shadow-opacity: 0.14;
    --art-muted-line: #94a3b8;
    --art-panel-tint: #f1f5f9;
    --accent-1: #0891b2;
    --accent-2: #0284c7;
    --accent-3: #2563eb;
    --accent-4: #4f46e5;
    --accent-5: #7c3aed;
    --accent-6: #0d9488;
}</style>
  <rect x="0" y="0" width="1.92E+3" height="1.08E+3" fill="#252a34" stroke="none" id="programmatic_background"/>
  <line id="HEADER_DECOR" x1="960.0" x2="1080.0" y1="135.0" y2="135.0" stroke="var(--accent-1)" stroke-width="6" stroke-linecap="round"/>
  <defs>
    <pattern id="svgbf91d188-napkin-hatch" patternUnits="userSpaceOnUse" width="12" height="12">
      <path d="M -3 12 L 12 -3 M 0 15 L 15 0" fill="none" stroke="var(--primary-text)" stroke-width="1" stroke-opacity="0.05"/>
    </pattern>
    <filter id="svgbf91d188-shadow" x="-30%" y="-30%" width="160%" height="160%">
      <feDropShadow dx="0" dy="2" stdDeviation="3" flood-color="#000000" flood-opacity="0.08"/>
      <feDropShadow dx="0" dy="6" stdDeviation="10" flood-color="#000000" flood-opacity="0.12"/>
    </filter>
    <filter id="svgbf91d188-beam-glow" x="-40%" y="-40%" width="180%" height="180%">
      <feDropShadow dx="0" dy="0" stdDeviation="8" flood-color="#000000" flood-opacity="0.12"/>
    </filter>
    <radialGradient id="svgbf91d188-universal-edge-vignette" cx="50%" cy="50%" r="72%">
      <stop offset="0%" stop-color="var(--background)" stop-opacity="0"/>
      <stop offset="72%" stop-color="var(--background)" stop-opacity="0.12"/>
      <stop offset="100%" stop-color="var(--primary-text)" stop-opacity="0.08"/>
    </radialGradient>
    <linearGradient id="svgbf91d188-universal-surface-sheen" x1="0%" y1="0%" x2="100%" y2="100%">
      <stop offset="0%" stop-color="var(--art-sheen)" stop-opacity="var(--art-sheen-opacity)"/>
      <stop offset="46%" stop-color="var(--art-sheen)" stop-opacity="0.035"/>
      <stop offset="100%" stop-color="var(--art-panel-tint)" stop-opacity="0.14"/>
    </linearGradient>
    <radialGradient id="svgbf91d188-universal-icon-aura" cx="50%" cy="42%" r="64%">
      <stop offset="0%" stop-color="var(--art-glow)" stop-opacity="var(--art-glow-opacity)"/>
      <stop offset="100%" stop-color="var(--background)" stop-opacity="0"/>
    </radialGradient>
    <linearGradient id="svgbf91d188-prism-glass-sheen" x1="0%" y1="0%" x2="100%" y2="100%">
      <stop offset="0%" stop-color="var(--inverse-text)" stop-opacity="0.20"/>
      <stop offset="100%" stop-color="var(--inverse-text)" stop-opacity="0"/>
    </linearGradient>
    <filter id="svgbf91d188-text-glow" x="-20%" y="-20%" width="140%" height="140%">
      <feDropShadow dx="0" dy="0" stdDeviation="2" flood-color="#000000" flood-opacity="0.4"/>
    </filter>
    <marker id="svgbf91d188-arrowhead" markerWidth="10" markerHeight="7" refX="9" refY="3.5" orient="auto" markerUnits="strokeWidth">
      <polygon points="0 0, 10 3.5, 0 7" fill="var(--muted-text)" opacity="0.6"/>
    </marker>
  </defs>
  <rect width="100%" height="100%" fill="var(--background)" id="CANVAS_BG"/>
  <rect width="100%" height="100%" fill="url(#svgbf91d188-napkin-hatch)"/>
  <rect id="UNIVERSAL_EDGE_VIGNETTE" width="100%" height="100%" fill="url(#svgbf91d188-universal-edge-vignette)" opacity="0.62"/>
  <text id="TITLE" x="960.0" y="59" text-anchor="middle" font-weight="800" font-size="56" fill="#0f172a" style="font-size: 60px; font-family: Inter, Segoe UI, Kalam, Roboto, Helvetica, Arial, sans-serif; font-weight: 700; letter-spacing:-1.2px;" data-final-font-size="60">
    <tspan x="960.0" dy="68.00px">County Down Sighting Variations</tspan>
  </text>
  <rect id="TITLE_FRAME" x="134" y="59" width="1652" height="103" fill="none"/>
  <path d="M 0 540 L 598 540" stroke="var(--primary-text)" stroke-width="20" stroke-linecap="round" opacity="0.08"/>
  <path d="M 0 540 L 598 540" stroke="var(--primary-text)" stroke-width="10" stroke-linecap="round" opacity="0.45"/>
  <text x="200" y="500" font-weight="bold" font-size="32" fill="var(--muted-text)">INPUT</text>
  <ellipse id="PRISM_ART_SHADOW" cx="690" cy="718" rx="180" ry="38" fill="var(--primary-text)" opacity="0.055"/>
  <path d="M 600 690 L 600 390 L 840 540 Z" fill="var(--panel)" fill-opacity="0.72" stroke="var(--primary-text)" stroke-width="9" stroke-opacity="0.75"/>
  <path id="PRISM_ART_GLASS_SHEEN" d="M 622 426 L 622 654 L 792 540 Z" fill="url(#svgbf91d188-prism-glass-sheen)" opacity="0.88"/>
  <path d="M 600 540 L 756 540" fill="none" stroke="var(--primary-text)" stroke-width="3" stroke-opacity="0.28"/>
  <path d="M 600 390 L 688 540 L 600 690" fill="none" stroke="var(--primary-text)" stroke-width="3" stroke-opacity="0.18"/>
  <g>
    <line x1="840" y1="540" x2="1100" y2="275" stroke="var(--accent-1)" stroke-width="18" stroke-linecap="round" opacity="0.18" filter="url(#svgbf91d188-beam-glow)"/>
    <line x1="840" y1="540" x2="1100" y2="275" stroke="var(--accent-1)" stroke-width="4" stroke-linecap="round" opacity="0.72"/>
    <g transform="translate(1100, 275)">
      <path id="ITEM_1_BG" d="M 0 -60 L 610 -60 L 740 15 L 610 90 L 0 90 L 56 15 Z" fill="var(--panel)" fill-opacity="0.95" stroke="var(--accent-1)" stroke-width="3" filter="url(#svgbf91d188-shadow)"/>
      <rect id="ITEM_1_TEXT_BG" x="138" y="-42" width="520" height="114" rx="18" fill="var(--panel)" fill-opacity="0.9" stroke="var(--primary-text)" stroke-opacity="0.1" stroke-width="1.5"/>
      <rect x="150" y="-32" width="496" height="94" rx="14" fill="url(#svgbf91d188-universal-surface-sheen)" opacity="0.76"/>
      <circle cx="82" cy="15" r="56" fill="url(#svgbf91d188-universal-icon-aura)" opacity="0.82"/>
      <circle id="ITEM_1_PAD" cx="82" cy="15" r="40" fill="var(--icon-pad-bg)" stroke="var(--primary-text)" opacity="0.94" fill-opacity="0.9" stroke-width="2"/>
      <circle id="ITEM_1_PAD_INNER" cx="82" cy="15" r="31.20" fill="var(--accent-4)" fill-opacity="0.22"/>
      <circle cx="82" cy="15" r="32" fill="none" stroke="var(--accent-1)" stroke-width="3" stroke-dasharray="6 4"/>
      <g id="ITEM_1_ICON" transform="translate(50, -17)" data-icon-size="64" stroke-dasharray="6 4">
        <g transform="translate(-5.925925925925926,-7.703703703703702) scale(3.1604938271604937)" vector-effect="non-scaling-stroke" fill="#f1f5f9" fill-opacity="1.0" stroke="none">
          <path fill="#f1f5f9" d="M20 13h-4c0 1.1-.9 2-2 2h-4c-1.1 0-2-.9-2-2H4l-2 5v2c0 1.1.9 2 2 2h16c1.1 0 2-.9 2-2v-2M6 20c-.89 0-1.34-1.08-.71-1.71S7 18.11 7 19c0 .55-.45 1-1 1m4 0c-.89 0-1.34-1.08-.71-1.71S11 18.11 11 19c0 .55-.45 1-1 1m4 0c-.89 0-1.34-1.08-.71-1.71S15 18.11 15 19c0 .55-.45 1-1 1m4 0c-.89 0-1.34-1.08-.71-1.71S19 18.11 19 19c0 .55-.45 1-1 1m0-10V3H6v7H3v2h18v-2M8 5h8v1H8m0 1h6v1H8" vector-effect="non-scaling-stroke" stroke="none"/>
        </g>
      </g>
      <text id="ITEM_1_HEAD" x="162.0" y="-30.0" font-weight="700" font-size="27" fill="var(--accent-4)" data-bg-id="ITEM_1_TEXT_BG" fill-opacity="1.0" style="font-size: 30px; font-family: Inter, Segoe UI, Kalam, Roboto, Helvetica, Arial, sans-serif; font-weight: 700; letter-spacing:-0.4px;" data-final-font-size="30">
        <tspan x="162.0" dy="29.49px">Sparse Entries</tspan>
      </text>
      <rect id="ITEM_1_HEAD_FRAME" x="162" y="-30" width="472" height="36" fill="none"/>
      <text id="ITEM_1_BODY" x="162.0" y="10.0" font-size="18.5" fill="var(--primary-text)" data-bg-id="ITEM_1_TEXT_BG" style="font-size: 26px; font-family: Inter, Segoe UI, Kalam, Roboto, Helvetica, Arial, sans-serif; font-weight: 400;" data-final-font-size="26">
        <tspan x="162.0" dy="23.00px">Newtownards logs contain only two-</tspan>
        <tspan x="162.0" dy="29.90px">word descriptions like 'A UFO</tspan>
      </text>
      <rect id="ITEM_1_BODY_FRAME" x="162" y="10" width="468" height="60" fill="none"/>
    </g>
    <line x1="840" y1="540" x2="1100" y2="425" stroke="var(--accent-2)" stroke-width="18" stroke-linecap="round" opacity="0.18" filter="url(#svgbf91d188-beam-glow)"/>
    <line x1="840" y1="540" x2="1100" y2="425" stroke="var(--accent-2)" stroke-width="4" stroke-linecap="round" opacity="0.72"/>
    <g transform="translate(1100, 425)">
      <path id="ITEM_2_BG" d="M 0 -60 L 610 -60 L 740 15 L 610 90 L 0 90 L 56 15 Z" fill="var(--panel)" fill-opacity="0.95" stroke="var(--accent-2)" stroke-width="3" filter="url(#svgbf91d188-shadow)"/>
      <rect id="ITEM_2_TEXT_BG" x="138" y="-42" width="520" height="114" rx="18" fill="var(--panel)" fill-opacity="0.9" stroke="var(--primary-text)" stroke-opacity="0.1" stroke-width="1.5"/>
      <rect x="150" y="-32" width="496" height="94" rx="14" fill="url(#svgbf91d188-universal-surface-sheen)" opacity="0.76"/>
      <circle cx="82" cy="15" r="56" fill="url(#svgbf91d188-universal-icon-aura)" opacity="0.82"/>
      <circle id="ITEM_2_PAD" cx="82" cy="15" r="40" fill="var(--icon-pad-bg)" stroke="var(--primary-text)" opacity="0.94" fill-opacity="0.9" stroke-width="2"/>
      <circle id="ITEM_2_PAD_INNER" cx="82" cy="15" r="31.20" fill="var(--accent-5)" fill-opacity="0.22"/>
      <circle cx="82" cy="15" r="32" fill="none" stroke="var(--accent-2)" stroke-width="3" stroke-dasharray="6 4"/>
      <g id="ITEM_2_ICON" transform="translate(50, -17)" data-icon-size="64" stroke-dasharray="6 4">
        <g transform="translate(-2.711864406779661,-2.711864406779661) scale(2.8926553672316384)" vector-effect="non-scaling-stroke" stroke-width="2.48" stroke-linecap="round" stroke-linejoin="round" stroke-opacity="1.0">
          <path d="M10 10h4" vector-effect="non-scaling-stroke" fill="none" stroke="#f1f5f9"/>
          <path d="M19 7V4a1 1 0 0 0-1-1h-2a1 1 0 0 0-1 1v3" vector-effect="non-scaling-stroke" fill="none" stroke="#f1f5f9"/>
          <path d="M20 21a2 2 0 0 0 2-2v-3.851c0-1.39-2-2.962-2-4.829V8a1 1 0 0 0-1-1h-4a1 1 0 0 0-1 1v11a2 2 0 0 0 2 2z" vector-effect="non-scaling-stroke" fill="none" stroke="#f1f5f9"/>
          <path d="M 22 16 L 2 16" vector-effect="non-scaling-stroke" fill="none" stroke="#f1f5f9"/>
          <path d="M4 21a2 2 0 0 1-2-2v-3.851c0-1.39 2-2.962 2-4.829V8a1 1 0 0 1 1-1h4a1 1 0 0 1 1 1v11a2 2 0 0 1-2 2z" vector-effect="non-scaling-stroke" fill="none" stroke="#f1f5f9"/>
          <path d="M9 7V4a1 1 0 0 0-1-1H6a1 1 0 0 0-1 1v3" vector-effect="non-scaling-stroke" fill="none" stroke="#f1f5f9"/>
        </g>
      </g>
      <text id="ITEM_2_HEAD" x="162.0" y="-30.0" font-weight="700" font-size="27" fill="var(--accent-5)" data-bg-id="ITEM_2_TEXT_BG" fill-opacity="1.0" style="font-size: 30px; font-family: Inter, Segoe UI, Kalam, Roboto, Helvetica, Arial, sans-serif; font-weight: 700; letter-spacing:-0.4px;" data-final-font-size="30">
        <tspan x="162.0" dy="29.49px">Detailed Observations</tspan>
      </text>
      <rect id="ITEM_2_HEAD_FRAME" x="162" y="-30" width="472" height="36" fill="none"/>
      <text id="ITEM_2_BODY" x="162.0" y="10.0" font-size="18.5" fill="var(--primary-text)" data-bg-id="ITEM_2_TEXT_BG" style="font-size: 26px; font-family: Inter, Segoe UI, Kalam, Roboto, Helvetica, Arial, sans-serif; font-weight: 400;" data-final-font-size="26">
        <tspan x="162.0" dy="23.00px">Ballynahinch records specify colors</tspan>
        <tspan x="162.0" dy="29.90px">and binocular viewing details</tspan>
      </text>
      <rect id="ITEM_2_BODY_FRAME" x="162" y="10" width="468" height="60" fill="none"/>
    </g>
    <line x1="840" y1="540" x2="1100" y2="575" stroke="var(--accent-3)" stroke-width="18" stroke-linecap="round" opacity="0.18" filter="url(#svgbf91d188-beam-glow)"/>
    <line x1="840" y1="540" x2="1100" y2="575" stroke="var(--accent-3)" stroke-width="4" stroke-linecap="round" opacity="0.72"/>
    <g transform="translate(1100, 575)">
      <path id="ITEM_3_BG" d="M 0 -60 L 610 -60 L 740 15 L 610 90 L 0 90 L 56 15 Z" fill="var(--panel)" fill-opacity="0.95" stroke="var(--accent-3)" stroke-width="3" filter="url(#svgbf91d188-shadow)"/>
      <rect id="ITEM_3_TEXT_BG" x="138" y="-42" width="520" height="114" rx="18" fill="var(--panel)" fill-opacity="0.9" stroke="var(--primary-text)" stroke-opacity="0.1" stroke-width="1.5"/>
      <rect x="150" y="-32" width="496" height="94" rx="14" fill="url(#svgbf91d188-universal-surface-sheen)" opacity="0.76"/>
      <circle cx="82" cy="15" r="56" fill="url(#svgbf91d188-universal-icon-aura)" opacity="0.82"/>
      <circle id="ITEM_3_PAD" cx="82" cy="15" r="40" fill="var(--icon-pad-bg)" stroke="var(--primary-text)" opacity="0.94" fill-opacity="0.9" stroke-width="2"/>
      <circle id="ITEM_3_PAD_INNER" cx="82" cy="15" r="31.20" fill="var(--accent-6)" fill-opacity="0.22"/>
      <circle cx="82" cy="15" r="32" fill="none" stroke="var(--accent-3)" stroke-width="3" stroke-dasharray="6 4"/>
      <g id="ITEM_3_ICON" transform="translate(50, -17)" data-icon-size="64" stroke-dasharray="6 4">
        <g transform="translate(-2.711864406779661,-2.711864406779661) scale(2.8926553672316384)" vector-effect="non-scaling-stroke" stroke-width="2.48" stroke-linecap="round" stroke-linejoin="round" stroke-opacity="1.0">
          <path d="M4 3 2 5v15c0 .6.4 1 1 1h2c.6 0 1-.4 1-1V5Z" vector-effect="non-scaling-stroke" fill="none" stroke="#f1f5f9"/>
          <path d="M6 8h4" vector-effect="non-scaling-stroke" fill="none" stroke="#f1f5f9"/>
          <path d="M6 18h4" vector-effect="non-scaling-stroke" fill="none" stroke="#f1f5f9"/>
          <path d="m12 3-2 2v15c0 .6.4 1 1 1h2c.6 0 1-.4 1-1V5Z" vector-effect="non-scaling-stroke" fill="none" stroke="#f1f5f9"/>
          <path d="M14 8h4" vector-effect="non-scaling-stroke" fill="none" stroke="#f1f5f9"/>
          <path d="M14 18h4" vector-effect="non-scaling-stroke" fill="none" stroke="#f1f5f9"/>
          <path d="m20 3-2 2v15c0 .6.4 1 1 1h2c.6 0 1-.4 1-1V5Z" vector-effect="non-scaling-stroke" fill="none" stroke="#f1f5f9"/>
        </g>
      </g>
      <text id="ITEM_3_HEAD" x="162.0" y="-30.0" font-weight="700" font-size="27" fill="var(--primary-text)" data-bg-id="ITEM_3_TEXT_BG" fill-opacity="1.0" style="font-size: 30px; font-family: Inter, Segoe UI, Kalam, Roboto, Helvetica, Arial, sans-serif; font-weight: 700; letter-spacing:-0.4px;" data-final-font-size="30">
        <tspan x="162.0" dy="29.49px">Geographic Anomalies</tspan>
      </text>
      <rect id="ITEM_3_HEAD_FRAME" x="162" y="-30" width="472" height="36" fill="none"/>
      <text id="ITEM_3_BODY" x="162.0" y="10.0" font-size="18.5" fill="var(--primary-text)" data-bg-id="ITEM_3_TEXT_BG" style="font-size: 26px; font-family: Inter, Segoe UI, Kalam, Roboto, Helvetica, Arial, sans-serif; font-weight: 400;" data-final-font-size="26">
        <tspan x="162.0" dy="23.00px">Newtownhamilton entries highlight</tspan>
        <tspan x="162.0" dy="29.90px">historic county boundary confusion</tspan>
      </text>
      <rect id="ITEM_3_BODY_FRAME" x="162" y="10" width="468" height="60" fill="none"/>
    </g>
    <line x1="840" y1="540" x2="1100" y2="725" stroke="var(--accent-4)" stroke-width="18" stroke-linecap="round" opacity="0.18" filter="url(#svgbf91d188-beam-glow)"/>
    <line x1="840" y1="540" x2="1100" y2="725" stroke="var(--accent-4)" stroke-width="4" stroke-linecap="round" opacity="0.72"/>
    <g transform="translate(1100, 725)">
      <path id="ITEM_4_BG" d="M 0 -60 L 610 -60 L 740 15 L 610 90 L 0 90 L 56 15 Z" fill="var(--panel)" fill-opacity="0.95" stroke="var(--accent-4)" stroke-width="3" filter="url(#svgbf91d188-shadow)"/>
      <rect id="ITEM_4_TEXT_BG" x="138" y="-42" width="520" height="114" rx="18" fill="var(--panel)" fill-opacity="0.9" stroke="var(--primary-text)" stroke-opacity="0.1" stroke-width="1.5"/>
      <rect x="150" y="-32" width="496" height="94" rx="14" fill="url(#svgbf91d188-universal-surface-sheen)" opacity="0.76"/>
      <circle cx="82" cy="15" r="56" fill="url(#svgbf91d188-universal-icon-aura)" opacity="0.82"/>
      <circle id="ITEM_4_PAD" cx="82" cy="15" r="40" fill="var(--icon-pad-bg)" stroke="var(--primary-text)" opacity="0.94" fill-opacity="0.9" stroke-width="2"/>
      <circle id="ITEM_4_PAD_INNER" cx="82" cy="15" r="31.20" fill="var(--accent-1)" fill-opacity="0.22"/>
      <circle cx="82" cy="15" r="32" fill="none" stroke="var(--accent-4)" stroke-width="3" stroke-dasharray="6 4"/>
      <g id="ITEM_4_ICON" transform="translate(50, -17)" data-icon-size="64" stroke-dasharray="6 4">
        <g transform="translate(-5.925925925925926,-5.925925925925926) scale(3.1604938271604937)" vector-effect="non-scaling-stroke" fill="#f1f5f9" fill-opacity="1.0" stroke="none">
          <path fill="#f1f5f9" d="m22 4l-2-2c-1.15.64-2.6 1-4 1s-2.86-.37-4-1c-1.14.63-2.6 1-4 1s-2.85-.36-4-1L2 4s2 2 2 4s-2 6-2 8c0 4 10 6 10 6s10-2 10-6c0-2-2-6-2-8s2-4 2-4m-6.95 12.45l-3.08-1.86l-3.07 1.86l.82-3.5L7 10.61l3.58-.31L11.97 7l1.4 3.29l3.58.31l-2.72 2.34z" vector-effect="non-scaling-stroke" stroke="none"/>
        </g>
      </g>
      <text id="ITEM_4_HEAD" x="162.0" y="-30.0" font-weight="700" font-size="27" fill="var(--primary-text)" data-bg-id="ITEM_4_TEXT_BG" fill-opacity="1.0" style="font-size: 30px; font-family: Inter, Segoe UI, Kalam, Roboto, Helvetica, Arial, sans-serif; font-weight: 700; letter-spacing:-0.4px;" data-final-font-size="30">
        <tspan x="162.0" dy="29.49px">Police Continuity</tspan>
      </text>
      <rect id="ITEM_4_HEAD_FRAME" x="162" y="-30" width="472" height="36" fill="none"/>
      <text id="ITEM_4_BODY" x="162.0" y="10.0" font-size="18.5" fill="var(--primary-text)" data-bg-id="ITEM_4_TEXT_BG" style="font-size: 26px; font-family: Inter, Segoe UI, Kalam, Roboto, Helvetica, Arial, sans-serif; font-weight: 400;" data-final-font-size="26">
        <tspan x="162.0" dy="23.00px">Post-MoD records appear in PSNI FOI</tspan>
        <tspan x="162.0" dy="29.90px">disclosure logs</tspan>
      </text>
      <rect id="ITEM_4_BODY_FRAME" x="162" y="10" width="468" height="60" fill="none"/>
    </g>
    <line x1="840" y1="540" x2="1100" y2="875" stroke="var(--accent-5)" stroke-width="18" stroke-linecap="round" opacity="0.18" filter="url(#svgbf91d188-beam-glow)"/>
    <line x1="840" y1="540" x2="1100" y2="875" stroke="var(--accent-5)" stroke-width="4" stroke-linecap="round" opacity="0.72"/>
    <g transform="translate(1100, 875)">
      <path id="ITEM_5_BG" d="M 0 -60 L 610 -60 L 740 15 L 610 90 L 0 90 L 56 15 Z" fill="var(--panel)" fill-opacity="0.95" stroke="var(--accent-5)" stroke-width="3" filter="url(#svgbf91d188-shadow)"/>
      <rect id="ITEM_5_TEXT_BG" x="138" y="-42" width="520" height="114" rx="18" fill="var(--panel)" fill-opacity="0.9" stroke="var(--primary-text)" stroke-opacity="0.1" stroke-width="1.5"/>
      <rect x="150" y="-32" width="496" height="94" rx="14" fill="url(#svgbf91d188-universal-surface-sheen)" opacity="0.76"/>
      <circle cx="82" cy="15" r="56" fill="url(#svgbf91d188-universal-icon-aura)" opacity="0.82"/>
      <circle id="ITEM_5_PAD" cx="82" cy="15" r="40" fill="var(--icon-pad-bg)" stroke="var(--primary-text)" opacity="0.94" fill-opacity="0.9" stroke-width="2"/>
      <circle id="ITEM_5_PAD_INNER" cx="82" cy="15" r="31.20" fill="var(--accent-2)" fill-opacity="0.22"/>
      <circle cx="82" cy="15" r="32" fill="none" stroke="var(--accent-5)" stroke-width="3" stroke-dasharray="6 4"/>
      <g id="ITEM_5_ICON" transform="translate(50, -17)" data-icon-size="64" stroke-dasharray="6 4">
        <g transform="translate(-0.8067226890756296,-2.6890756302521006) scale(0.13445378151260504)" vector-effect="non-scaling-stroke" fill="#f1f5f9" fill-opacity="1.0" stroke="none">
          <path fill="#f1f5f9" d="M48.32 20.4v24.47h99.88V20.4zM372 24.68c-30.3.91-53 48.3-54.3 75.09c0 21.53 7.4 40.83 18.7 54.53c-61.6 11.6-66.3 115.4-66.3 188.3h30.3l-10.1-11.4c-.4-51.8 1.8-95.2 24-135.5c-6.1 99.9 3.2 208.7 9.9 299.1h85.2l-65-11.8c-11.9-104.4-18.9-205.7-4.5-308.5c0 0 9.5-6.1 24.3-13.4c-14.2-12.1-23.6-33.3-23.6-57.4c0-37.59 22.8-68.04 50.9-68.04c8.9 0 17.2 3.04 24.5 8.39c-10.4-11.98-24.3-19.26-39.4-19.26c-1.6 0-3.2-.14-4.6-.11M43.24 63.56C29.11 81.97 20.35 107.5 20.35 135.8c0 29.9 9.79 56.8 25.36 75.4H149.1c15.6-18.6 25.3-45.5 25.3-75.4c0-28.3-8.7-53.83-22.8-72.24zM441.2 196l1.7 147.2l22.3-.3c-4.9-51.7-3.2-107.2-24-146.9M48.32 229.8v24.5h99.88v-24.5z" vector-effect="non-scaling-stroke" stroke="none"/>
        </g>
      </g>
      <text id="ITEM_5_HEAD" x="162.0" y="-30.0" font-weight="700" font-size="27" fill="var(--primary-text)" data-bg-id="ITEM_5_TEXT_BG" fill-opacity="1.0" style="font-size: 30px; font-family: Inter, Segoe UI, Kalam, Roboto, Helvetica, Arial, sans-serif; font-weight: 700; letter-spacing:-0.4px;" data-final-font-size="30">
        <tspan x="162.0" dy="29.49px">Ordinary Explanations</tspan>
      </text>
      <rect id="ITEM_5_HEAD_FRAME" x="162" y="-30" width="472" height="36" fill="none"/>
      <text id="ITEM_5_BODY" x="162.0" y="10.0" font-size="18.5" fill="var(--primary-text)" data-bg-id="ITEM_5_TEXT_BG" style="font-size: 26px; font-family: Inter, Segoe UI, Kalam, Roboto, Helvetica, Arial, sans-serif; font-weight: 400;" data-final-font-size="26">
        <tspan x="162.0" dy="23.00px">Many reports involve lanterns</tspan>
        <tspan x="162.0" dy="29.90px">or high-altitude aircraft movements</tspan>
      </text>
      <rect id="ITEM_5_BODY_FRAME" x="162" y="10" width="468" height="60" fill="none"/>
    </g>
  </g>
</svg>
