<?xml version='1.0' encoding='utf-8'?>
<svg xmlns="http://www.w3.org/2000/svg" width="1920" height="1080" viewBox="0 0 1920 1080" data-theme="light">
  <style>
        @font-face {
            font-family: 'Inter';
            src: url('assets/fonts/Inter-Regular.ttf') format('truetype');
            font-weight: 400;
            font-style: normal;
            font-display: swap;
        }
        @font-face {
            font-family: 'Inter';
            src: url('assets/fonts/Inter-Bold.ttf') format('truetype');
            font-weight: 600;
            font-style: normal;
            font-display: swap;
        }
        @font-face {
            font-family: 'Inter';
            src: url('assets/fonts/Inter-Bold.ttf') format('truetype');
            font-weight: 800;
            font-style: normal;
            font-display: swap;
        }
        
:root {
    --background: #f8fafc;
    --panel: #ffffff;
    --primary-text: #0f172a;
    --muted-text: #64748b;
    --inverse-text: #ffffff;
    --border: #e2e8f0;
    --shadow-color: #000000;
    --icon-pad-bg: #1e293b;
    --art-glow: #0891b2;
    --art-glow-opacity: 0.10;
    --art-sheen: #ffffff;
    --art-sheen-opacity: 0.34;
    --art-shadow: #0f172a;
    --art-shadow-opacity: 0.14;
    --art-muted-line: #94a3b8;
    --art-panel-tint: #f1f5f9;
    --font-family: 'Inter', 'Segoe UI', 'Kalam', Roboto, Helvetica, Arial, sans-serif;
    --radius-xl: 16px;
    --font-family-headline: 'Inter', 'Segoe UI', 'Kalam', Roboto, Helvetica, Arial, sans-serif;
    --font-family-body: 'Inter', 'Segoe UI', 'Kalam', Roboto, Helvetica, Arial, sans-serif;
    --font-heading: 'Inter', 'Segoe UI', 'Kalam', Roboto, Helvetica, Arial, sans-serif;
    --font-body: 'Inter', 'Segoe UI', 'Kalam', Roboto, Helvetica, Arial, sans-serif;
    --font-size-h1: 56px;
    --font-size-h2: 40px;
    --font-size-h3: 28px;
    --font-size-body: 24px;
    --font-size-caption: 18px;
    --secondary-text: var(--muted-text);
    --panel-border: var(--border);
    --font-weight-normal: 400;
    --font-weight-medium: 500;
    --font-weight-semibold: 600;
    --font-weight-bold: 700;
    --spacing-gutter-pct: 0.07;
    --spacing-top-pct: 0.15;
    --spacing-bottom-pct: 0.07;
    --spacing-title-y-pct: 0.055;
    --accent-1: #0891b2;
    --accent-2: #db2777;
    --accent-3: #ca8a04;
    --accent-4: #65a30d;
    --accent-5: #ea580c;
    --accent-6: #9333ea;
}
:root[data-theme="dark"] {
    --background: #0f172a;
    --panel: #1e293b;
    --primary-text: #f1f5f9;
    --muted-text: #94a3b8;
    --inverse-text: #0f172a;
    --border: #334155;
    --shadow-color: #000000;
    --icon-pad-bg: #1e293b;
    --art-glow: #7dd3fc;
    --art-glow-opacity: 0.18;
    --art-sheen: #ffffff;
    --art-sheen-opacity: 0.18;
    --art-shadow: #000000;
    --art-shadow-opacity: 0.28;
    --art-muted-line: #64748b;
    --art-panel-tint: #1e293b;
    --accent-1: #22d3ee;
    --accent-2: #f472b6;
    --accent-3: #facc15;
    --accent-4: #a3e635;
    --accent-5: #fb923c;
    --accent-6: #c084fc;
}
:root[data-theme="light"] {
    --background: #f8fafc;
    --panel: #ffffff;
    --primary-text: #0f172a;
    --muted-text: #64748b;
    --inverse-text: #ffffff;
    --border: #e2e8f0;
    --shadow-color: #000000;
    --icon-pad-bg: #1e293b;
    --art-glow: #0891b2;
    --art-glow-opacity: 0.10;
    --art-sheen: #ffffff;
    --art-sheen-opacity: 0.34;
    --art-shadow: #0f172a;
    --art-shadow-opacity: 0.14;
    --art-muted-line: #94a3b8;
    --art-panel-tint: #f1f5f9;
    --accent-1: #0891b2;
    --accent-2: #db2777;
    --accent-3: #ca8a04;
    --accent-4: #65a30d;
    --accent-5: #ea580c;
    --accent-6: #9333ea;
}</style>
  <rect x="0" y="0" width="1.92E+3" height="1.08E+3" fill="#252a34" stroke="none" id="programmatic_background"/>
  <line id="HEADER_DECOR" x1="960.0" x2="1080.0" y1="135.0" y2="135.0" stroke="var(--accent-1)" stroke-width="6" stroke-linecap="round"/>
  <defs>
    <pattern id="svg50cba65d-napkin-hatch" patternUnits="userSpaceOnUse" width="12" height="12">
      <path d="M -3 12 L 12 -3 M 0 15 L 15 0" fill="none" stroke="var(--primary-text)" stroke-width="1" stroke-opacity="0.05"/>
    </pattern>
    <filter id="svg50cba65d-shadow" x="-30%" y="-30%" width="160%" height="160%">
      <feDropShadow dx="0" dy="3" stdDeviation="4" flood-color="#000000" flood-opacity="0.10"/>
      <feDropShadow dx="0" dy="10" stdDeviation="16" flood-color="#000000" flood-opacity="0.12"/>
    </filter>
    <radialGradient id="svg50cba65d-universal-edge-vignette" cx="50%" cy="50%" r="72%">
      <stop offset="0%" stop-color="var(--background)" stop-opacity="0"/>
      <stop offset="72%" stop-color="var(--background)" stop-opacity="0.12"/>
      <stop offset="100%" stop-color="var(--primary-text)" stop-opacity="0.08"/>
    </radialGradient>
    <linearGradient id="svg50cba65d-universal-surface-sheen" x1="0%" y1="0%" x2="100%" y2="100%">
      <stop offset="0%" stop-color="var(--art-sheen)" stop-opacity="var(--art-sheen-opacity)"/>
      <stop offset="46%" stop-color="var(--art-sheen)" stop-opacity="0.035"/>
      <stop offset="100%" stop-color="var(--art-panel-tint)" stop-opacity="0.14"/>
    </linearGradient>
    <radialGradient id="svg50cba65d-universal-icon-aura" cx="50%" cy="42%" r="64%">
      <stop offset="0%" stop-color="var(--art-glow)" stop-opacity="var(--art-glow-opacity)"/>
      <stop offset="100%" stop-color="var(--background)" stop-opacity="0"/>
    </radialGradient>
    <filter id="svg50cba65d-text-glow" x="-20%" y="-20%" width="140%" height="140%">
      <feDropShadow dx="0" dy="0" stdDeviation="2" flood-color="#000000" flood-opacity="0.4"/>
    </filter>
    <marker id="svg50cba65d-arrowhead" markerWidth="10" markerHeight="7" refX="9" refY="3.5" orient="auto" markerUnits="strokeWidth">
      <polygon points="0 0, 10 3.5, 0 7" fill="var(--muted-text)" opacity="0.6"/>
    </marker>
  </defs>
  <rect id="CANVAS_BG" width="100%" height="100%" fill="var(--background)"/>
  <rect width="100%" height="100%" fill="url(#svg50cba65d-napkin-hatch)"/>
  <rect id="UNIVERSAL_EDGE_VIGNETTE" width="100%" height="100%" fill="url(#svg50cba65d-universal-edge-vignette)" opacity="0.62"/>
  <text id="TITLE" x="960.0" y="59" text-anchor="middle" font-weight="800" font-size="56" fill="#0f172a" style="font-size: 60px; font-family: Inter, Segoe UI, Kalam, Roboto, Helvetica, Arial, sans-serif; font-weight: 700; letter-spacing:-1.2px;" data-final-font-size="60">
    <tspan x="960.0" dy="68.00px">Denbighshire UFO Sightings vs Reality</tspan>
  </text>
  <rect id="TITLE_FRAME" x="134" y="59" width="1652" height="103" fill="none"/>
  <g id="FIELD">
    <rect x="190" y="250" width="650" height="270" rx="34" fill="var(--accent-1)" fill-opacity="0.08" stroke="var(--accent-1)" stroke-width="2" stroke-opacity="0.22"/>
    <rect x="1080" y="250" width="650" height="270" rx="34" fill="var(--accent-2)" fill-opacity="0.08" stroke="var(--accent-2)" stroke-width="2" stroke-opacity="0.22"/>
    <rect x="190" y="680" width="650" height="270" rx="34" fill="var(--accent-4)" fill-opacity="0.08" stroke="var(--accent-4)" stroke-width="2" stroke-opacity="0.18"/>
    <rect x="1080" y="680" width="650" height="270" rx="34" fill="var(--accent-5)" fill-opacity="0.08" stroke="var(--accent-5)" stroke-width="2" stroke-opacity="0.18"/>
    <line x1="960" y1="226" x2="960" y2="974" stroke="var(--primary-text)" stroke-width="11" stroke-opacity="0.20"/>
    <line x1="176" y1="600" x2="1744" y2="600" stroke="var(--primary-text)" stroke-width="11" stroke-opacity="0.20"/>
    <path d="M 960 534 L 1028 600 L 960 666 L 892 600 Z" fill="var(--panel)" fill-opacity="0.94" stroke="var(--primary-text)" stroke-width="4" stroke-opacity="0.28"/>
    <circle cx="960" cy="600" r="38" fill="var(--background)" stroke="var(--primary-text)" stroke-width="4"/>
    <g transform="translate(490, 384)">
      <rect id="ITEM_1_BG" x="-280" y="-110" width="560" height="220" rx="30" fill="var(--panel)" fill-opacity="0.95" stroke="var(--accent-1)" stroke-width="3" filter="url(#svg50cba65d-shadow)"/>
      <rect x="-280" y="-110" width="560" height="220" rx="18" fill="url(#svg50cba65d-universal-surface-sheen)" opacity="0.84"/>
      <rect x="226" y="-82" width="16" height="164" rx="8" fill="var(--accent-1)" fill-opacity="0.22"/>
      <circle cx="198" cy="-16" r="78" fill="none" stroke="var(--accent-1)" stroke-width="2.5" stroke-opacity="0.14"/>
      <text id="ITEM_1_HEAD" x="-220.0" y="-82.0" text-anchor="start" font-weight="700" font-size="29" fill="var(--primary-text)" data-bg-id="ITEM_1_BG" fill-opacity="1.0" style="font-size: 30px; font-family: Inter, Segoe UI, Kalam, Roboto, Helvetica, Arial, sans-serif; font-weight: 700; letter-spacing:-0.4px;" data-final-font-size="30">
        <tspan x="-220.0" dy="29.91px">Alien Craft Claims</tspan>
      </text>
      <rect id="ITEM_1_HEAD_FRAME" x="-220" y="-82" width="350" height="38" fill="none"/>
      <text id="ITEM_1_BODY" x="-220.0" y="-2.0" text-anchor="start" font-size="20" fill="var(--primary-text)" data-bg-id="ITEM_1_BG" style="font-size: 26px; font-family: Inter, Segoe UI, Kalam, Roboto, Helvetica, Arial, sans-serif; font-weight: 400;" data-final-font-size="26">
        <tspan x="-220.0" dy="32.10px">Witnesses report large black</tspan>
        <tspan x="-220.0" dy="29.90px">and silver objects in skies</tspan>
      </text>
      <rect id="ITEM_1_BODY_FRAME" x="-220" y="-2" width="360" height="102" fill="none"/>
      <circle id="ITEM_1_PAD" cx="198" cy="-16" r="48" fill="var(--icon-pad-bg)" opacity="0.96" fill-opacity="0.9" stroke-width="2" stroke="var(--primary-text)"/>
      <circle id="ITEM_1_PAD_INNER" cx="198" cy="-16" r="37.44" fill="var(--accent-4)" fill-opacity="0.22"/>
      <circle cx="198" cy="-16" r="38" fill="none" stroke="var(--accent-1)" stroke-width="2.5" stroke-dasharray="6 4"/>
      <g id="ITEM_1_ICON" transform="translate(160, -54)" data-icon-size="76" stroke-dasharray="6 4">
        <g transform="translate(-3.2203389830508473,-3.2203389830508433) scale(3.4350282485875705)" vector-effect="non-scaling-stroke" stroke-width="2.62" stroke-linecap="round" stroke-linejoin="round" stroke-opacity="1.0">
          <path d="M10 10h4" vector-effect="non-scaling-stroke" fill="none" stroke="#f1f5f9"/>
          <path d="M19 7V4a1 1 0 0 0-1-1h-2a1 1 0 0 0-1 1v3" vector-effect="non-scaling-stroke" fill="none" stroke="#f1f5f9"/>
          <path d="M20 21a2 2 0 0 0 2-2v-3.851c0-1.39-2-2.962-2-4.829V8a1 1 0 0 0-1-1h-4a1 1 0 0 0-1 1v11a2 2 0 0 0 2 2z" vector-effect="non-scaling-stroke" fill="none" stroke="#f1f5f9"/>
          <path d="M 22 16 L 2 16" vector-effect="non-scaling-stroke" fill="none" stroke="#f1f5f9"/>
          <path d="M4 21a2 2 0 0 1-2-2v-3.851c0-1.39 2-2.962 2-4.829V8a1 1 0 0 1 1-1h4a1 1 0 0 1 1 1v11a2 2 0 0 1-2 2z" vector-effect="non-scaling-stroke" fill="none" stroke="#f1f5f9"/>
          <path d="M9 7V4a1 1 0 0 0-1-1H6a1 1 0 0 0-1 1v3" vector-effect="non-scaling-stroke" fill="none" stroke="#f1f5f9"/>
        </g>
      </g>
    </g>
    <g transform="translate(1430, 384)">
      <rect id="ITEM_2_BG" x="-280" y="-110" width="560" height="220" rx="30" fill="var(--panel)" fill-opacity="0.95" stroke="var(--accent-2)" stroke-width="3" filter="url(#svg50cba65d-shadow)"/>
      <rect x="-280" y="-110" width="560" height="220" rx="18" fill="url(#svg50cba65d-universal-surface-sheen)" opacity="0.84"/>
      <rect x="-242" y="-82" width="16" height="164" rx="8" fill="var(--accent-2)" fill-opacity="0.22"/>
      <circle cx="-198" cy="-16" r="78" fill="none" stroke="var(--accent-2)" stroke-width="2.5" stroke-opacity="0.14"/>
      <text id="ITEM_2_HEAD" x="220.0" y="-82.0" text-anchor="end" font-weight="700" font-size="29" fill="var(--primary-text)" data-bg-id="ITEM_2_BG" fill-opacity="1.0" style="font-size: 30px; font-family: Inter, Segoe UI, Kalam, Roboto, Helvetica, Arial, sans-serif; font-weight: 700; letter-spacing:-0.4px;" data-final-font-size="30">
        <tspan x="220.0" dy="29.91px">Helicopter Noise</tspan>
      </text>
      <rect id="ITEM_2_HEAD_FRAME" x="-130" y="-82" width="350" height="38" fill="none"/>
      <text id="ITEM_2_BODY" x="220.0" y="-2.0" text-anchor="end" font-size="20" fill="var(--primary-text)" data-bg-id="ITEM_2_BG" style="font-size: 26px; font-family: Inter, Segoe UI, Kalam, Roboto, Helvetica, Arial, sans-serif; font-weight: 400;" data-final-font-size="26">
        <tspan x="220.0" dy="26.12px">Call handlers identified</tspan>
        <tspan x="220.0" dy="29.90px">mechanical sounds in some</tspan>
        <tspan x="220.0" dy="29.90px">reported sightings</tspan>
      </text>
      <rect id="ITEM_2_BODY_FRAME" x="-140" y="-2" width="360" height="102" fill="none"/>
      <circle id="ITEM_2_PAD" cx="-198" cy="-16" r="48" fill="var(--icon-pad-bg)" opacity="0.96" fill-opacity="0.9" stroke-width="2" stroke="var(--primary-text)"/>
      <circle id="ITEM_2_PAD_INNER" cx="-198" cy="-16" r="37.44" fill="var(--accent-5)" fill-opacity="0.22"/>
      <circle cx="-198" cy="-16" r="38" fill="none" stroke="var(--accent-2)" stroke-width="2.5" stroke-dasharray="6 4"/>
      <g id="ITEM_2_ICON" transform="translate(-236, -54)" data-icon-size="76" stroke-dasharray="6 4">
        <g transform="translate(-5.62962962962963,-11.259259259259258) scale(2.814814814814815)">
          <path d="M12 6H13V7H22C22.55 7 23 7.45 23 8C23 8.55 22.55 9 22 9H13V10H12V9H4C3.45 9 3 8.55 3 8C3 7.45 3.45 7 4 7H12V6ZM14 23.71L14.71 23L20.21 28.5L19.5 29.21L14 23.71ZM8 23.67H7V29.33H8V23.67Z" fill="#B4ACBC"/>
          <path d="M28.06 7C27.81 7 27.57 7.1 27.39 7.28L23.67 11H10.5C9.67 11 9 11.67 9 12.5C9 13.33 9.67 14 10.5 14H18V19L23 14H27.5C28.33 14 29 13.33 29 12.5V7.93999C29 7.42999 28.58 7 28.06 7Z" fill="#FFB02E"/>
          <path d="M13 5.5C13 5.22 12.78 5 12.5 5C12.22 5 12 5.22 12 5.5V6H13V5.5Z" fill="#F8312F"/>
          <path d="M2 29C2 28.45 2.45 28 3 28H23C23.55 28 24 28.45 24 29C24 29.55 23.55 30 23 30H3C2.45 30 2 29.56 2 29Z" fill="#FF822D"/>
          <path d="M13.41 10H11.59C11.26 10 11 10.27 11 10.59V12H14V10.59C14 10.27 13.73 10 13.41 10Z" fill="#FCD53F"/>
          <path d="M27.39 7.28C27.57 7.1 27.81 7 28.06 7C28.58 7 29 7.42999 29 7.93999V12.5C29 13.33 28.33 14 27.5 14H23L19.9373 17.0627C19.9786 17.3694 20 17.6822 20 18C20 21.87 16.8578 25 12.9727 25H8.95706C5.41328 25 2.49191 22.39 2 19L6.59788 16.09L7 11.29C7.63246 11.1 8.25433 11 8.95706 11H23.67L27.39 7.28Z" fill="#FF822D"/>
          <path d="M27 13C27.5523 13 28 12.5523 28 12C28 11.4477 27.5523 11 27 11C26.4477 11 26 11.4477 26 12C26 12.5523 26.4477 13 27 13Z" fill="#E6E6E6"/>
          <path d="M2.06999 19C2.01999 18.67 2 18.34 2 18C2 14.83 4.11 12.15 7 11.29L11.16 17.71C11.52 18.27 11.12 19 10.46 19H2.06999ZM12.47 16.64L10.29 13.29C9.93 12.74 10.33 12 10.99 12.01H13.17C13.63 12.01 14 12.38 14 12.84V16.19C14 17.02 12.92 17.34 12.47 16.64Z" fill="#00A6ED"/>
          <path d="M2.60693 21C2.96693 21.75 3.45203 22.43 4.03203 23H17.89C18.48 22.43 18.9781 21.75 19.3281 21H2.60693Z" fill="#FCD53F"/>
        </g>
      </g>
    </g>
    <g transform="translate(960, 600)">
      <rect id="ITEM_3_BG" x="-310" y="-108" width="620" height="216" rx="32" fill="var(--panel)" fill-opacity="0.96" stroke="var(--accent-3)" stroke-width="3" filter="url(#svg50cba65d-shadow)"/>
      <rect x="-248" y="-76" width="496" height="12" rx="6" fill="var(--accent-3)" fill-opacity="0.18"/>
      <circle cx="0" cy="-18" r="86" fill="none" stroke="var(--accent-3)" stroke-width="2.5" stroke-opacity="0.14"/>
      <text id="ITEM_3_HEAD" x="0.0" y="-78.0" text-anchor="middle" font-weight="700" font-size="30" fill="var(--accent-6)" data-bg-id="ITEM_3_BG" fill-opacity="1.0" style="font-size: 30px; font-family: Inter, Segoe UI, Kalam, Roboto, Helvetica, Arial, sans-serif; font-weight: 700; letter-spacing:-0.4px;" data-final-font-size="30">
        <tspan x="0.0" dy="29.91px">Starlink Satellite Trains</tspan>
      </text>
      <rect id="ITEM_3_HEAD_FRAME" x="-250" y="-78" width="500" height="38" fill="none"/>
      <text id="ITEM_3_BODY" x="0.0" y="2.0" text-anchor="middle" font-size="20" fill="var(--primary-text)" data-bg-id="ITEM_3_BG" style="font-size: 26px; font-family: Inter, Segoe UI, Kalam, Roboto, Helvetica, Arial, sans-serif; font-weight: 400;" data-final-font-size="26">
        <tspan x="0.0" dy="31.18px">Modern lines of lights often turn out</tspan>
        <tspan x="0.0" dy="29.90px">to be satellites</tspan>
      </text>
      <rect id="ITEM_3_BODY_FRAME" x="-250" y="2" width="500" height="98" fill="none"/>
      <circle id="ITEM_3_PAD" cx="0" cy="-18" r="50" fill="var(--icon-pad-bg)" opacity="0.96" fill-opacity="0.9" stroke-width="2" stroke="var(--primary-text)"/>
      <circle id="ITEM_3_PAD_INNER" cx="0" cy="-18" r="39.00" fill="var(--accent-6)" fill-opacity="0.22"/>
      <circle cx="0" cy="-18" r="40" fill="none" stroke="var(--accent-3)" stroke-width="2.5" stroke-dasharray="6 4"/>
      <g id="ITEM_3_ICON" transform="translate(-40, -58)" data-icon-size="80" stroke-dasharray="6 4">
        <g transform="translate(-7.4074074074074066,-7.4074074074074066) scale(3.950617283950617)" vector-effect="non-scaling-stroke" stroke-width="2.67" stroke-linecap="round" stroke-linejoin="round" stroke-opacity="1.0">
          <path d="M4 10a7.31 7.31 0 0 0 10 10Z" vector-effect="non-scaling-stroke" fill="none" stroke="#f1f5f9"/>
          <path d="m9 15 3-3" vector-effect="non-scaling-stroke" fill="none" stroke="#f1f5f9"/>
          <path d="M17 13a6 6 0 0 0-6-6" vector-effect="non-scaling-stroke" fill="none" stroke="#f1f5f9"/>
          <path d="M21 13A10 10 0 0 0 11 3" vector-effect="non-scaling-stroke" fill="none" stroke="#f1f5f9"/>
        </g>
      </g>
    </g>
    <g transform="translate(490, 816)">
      <rect id="ITEM_4_BG" x="-280" y="-110" width="560" height="220" rx="30" fill="var(--panel)" fill-opacity="0.95" stroke="var(--accent-4)" stroke-width="3" filter="url(#svg50cba65d-shadow)"/>
      <rect x="-280" y="-110" width="560" height="220" rx="18" fill="url(#svg50cba65d-universal-surface-sheen)" opacity="0.84"/>
      <rect x="226" y="-82" width="16" height="164" rx="8" fill="var(--accent-4)" fill-opacity="0.22"/>
      <circle cx="198" cy="-16" r="78" fill="none" stroke="var(--accent-4)" stroke-width="2.5" stroke-opacity="0.14"/>
      <text id="ITEM_4_HEAD" x="-220.0" y="-82.0" text-anchor="start" font-weight="700" font-size="29" fill="var(--primary-text)" data-bg-id="ITEM_4_BG" fill-opacity="1.0" style="font-size: 30px; font-family: Inter, Segoe UI, Kalam, Roboto, Helvetica, Arial, sans-serif; font-weight: 700; letter-spacing:-0.4px;" data-final-font-size="30">
        <tspan x="-220.0" dy="29.91px">Orange Light Folklore</tspan>
      </text>
      <rect id="ITEM_4_HEAD_FRAME" x="-220" y="-82" width="350" height="38" fill="none"/>
      <text id="ITEM_4_BODY" x="-220.0" y="-2.0" text-anchor="start" font-size="20" fill="var(--primary-text)" data-bg-id="ITEM_4_BG" style="font-size: 26px; font-family: Inter, Segoe UI, Kalam, Roboto, Helvetica, Arial, sans-serif; font-weight: 400;" data-final-font-size="26">
        <tspan x="-220.0" dy="26.12px">Recurring reports of orange</tspan>
        <tspan x="-220.0" dy="29.90px">lights often overlap</tspan>
        <tspan x="-220.0" dy="29.90px">with lanterns</tspan>
      </text>
      <rect id="ITEM_4_BODY_FRAME" x="-220" y="-2" width="360" height="102" fill="none"/>
      <circle id="ITEM_4_PAD" cx="198" cy="-16" r="48" fill="var(--icon-pad-bg)" opacity="0.96" fill-opacity="0.9" stroke-width="2" stroke="var(--primary-text)"/>
      <circle id="ITEM_4_PAD_INNER" cx="198" cy="-16" r="37.44" fill="var(--accent-1)" fill-opacity="0.22"/>
      <circle cx="198" cy="-16" r="38" fill="none" stroke="var(--accent-4)" stroke-width="2.5" stroke-dasharray="6 4"/>
      <g id="ITEM_4_ICON" transform="translate(160, -54)" data-icon-size="76" stroke-dasharray="6 4">
        <g transform="translate(-2.533333333333333,-3.1666666666666665) scale(0.15833333333333333)" vector-effect="non-scaling-stroke" fill="#f1f5f9" fill-opacity="1.0" stroke="none">
          <path fill="#f1f5f9" d="M257.25 23.375c-41.54 0-75.438 33.896-75.438 75.438c0 17.043 5.714 32.786 15.313 45.437c-34.426 29.59-75.093 52.47-118.094 72.844H435.44c-44.283-20.26-85.17-43.21-118.782-71.938c10.015-12.8 16-28.89 16-46.344c0-41.54-33.865-75.437-75.406-75.437zm0 18.72c31.44 0 56.72 25.276 56.72 56.718c0 12.707-4.13 24.41-11.126 33.843c-18.043-17.45-33.484-36.936-45.594-59.094c-13.017 21.97-28.66 41.102-46.28 58.126c-6.585-9.263-10.47-20.59-10.47-32.875c0-31.442 25.31-56.72 56.75-56.72zm-104.03 193.53v203.813h208.03V235.625zm103.5 18c.953-.008 1.92.007 2.874.03a85.6 85.6 0 0 1 40.75 11.47c41.115 23.738 55.27 76.604 31.53 117.72c-23.737 41.114-76.57 55.268-117.687 31.53c-41.115-23.738-55.268-76.572-31.53-117.688c15.81-27.383 44.494-42.824 74.062-43.062zm9.31 19.188v36.718h51.626c-5.71-11.41-14.736-21.335-26.656-28.217a67.5 67.5 0 0 0-24.97-8.5zm-18.686.156c-19.64 2.913-37.79 14.456-48.53 33.06a67 67 0 0 0-1.876 3.5h50.406zm-56.625 55.25a67.3 67.3 0 0 0 1.03 27.936h55.594V328.22H190.72zm75.31 0v27.936h56.69c2.342-9.27 2.677-18.784 1.092-27.937h-57.78zm-66.467 46.624c5.7 9.358 13.775 17.458 23.968 23.344a67.6 67.6 0 0 0 23.814 8.343v-31.686h-47.78zm66.468 0v31.844c19.585-2.564 37.804-13.686 48.845-31.844zm-144.5 83.28v38.563h271.41v-38.562H121.53z" vector-effect="non-scaling-stroke" stroke="none"/>
        </g>
      </g>
    </g>
    <g transform="translate(1430, 816)">
      <rect id="ITEM_5_BG" x="-280" y="-110" width="560" height="220" rx="30" fill="var(--panel)" fill-opacity="0.95" stroke="var(--accent-5)" stroke-width="3" filter="url(#svg50cba65d-shadow)"/>
      <rect x="-280" y="-110" width="560" height="220" rx="18" fill="url(#svg50cba65d-universal-surface-sheen)" opacity="0.84"/>
      <rect x="-242" y="-82" width="16" height="164" rx="8" fill="var(--accent-5)" fill-opacity="0.22"/>
      <circle cx="-198" cy="-16" r="78" fill="none" stroke="var(--accent-5)" stroke-width="2.5" stroke-opacity="0.14"/>
      <text id="ITEM_5_HEAD" x="220.0" y="-82.0" text-anchor="end" font-weight="700" font-size="29" fill="var(--accent-2)" data-bg-id="ITEM_5_BG" fill-opacity="1.0" style="font-size: 30px; font-family: Inter, Segoe UI, Kalam, Roboto, Helvetica, Arial, sans-serif; font-weight: 700; letter-spacing:-0.4px;" data-final-font-size="30">
        <tspan x="220.0" dy="29.91px">Drone Ambiguity</tspan>
      </text>
      <rect id="ITEM_5_HEAD_FRAME" x="-130" y="-82" width="350" height="38" fill="none"/>
      <text id="ITEM_5_BODY" x="220.0" y="-2.0" text-anchor="end" font-size="20" fill="var(--primary-text)" data-bg-id="ITEM_5_BG" style="font-size: 26px; font-family: Inter, Segoe UI, Kalam, Roboto, Helvetica, Arial, sans-serif; font-weight: 400;" data-final-font-size="26">
        <tspan x="220.0" dy="26.12px">Modern reports frequently</tspan>
        <tspan x="220.0" dy="29.90px">confuse unmanned aircraft</tspan>
        <tspan x="220.0" dy="29.90px">with unknown objects</tspan>
      </text>
      <rect id="ITEM_5_BODY_FRAME" x="-140" y="-2" width="360" height="102" fill="none"/>
      <circle id="ITEM_5_PAD" cx="-198" cy="-16" r="48" fill="var(--icon-pad-bg)" opacity="0.96" fill-opacity="0.9" stroke-width="2" stroke="var(--primary-text)"/>
      <circle id="ITEM_5_PAD_INNER" cx="-198" cy="-16" r="37.44" fill="var(--accent-2)" fill-opacity="0.22"/>
      <circle cx="-198" cy="-16" r="38" fill="none" stroke="var(--accent-5)" stroke-width="2.5" stroke-dasharray="6 4"/>
      <g id="ITEM_5_ICON" transform="translate(-236, -54)" data-icon-size="76" stroke-dasharray="6 4">
        <g transform="translate(-7.037037037037036,-7.037037037037036) scale(3.753086419753086)" vector-effect="non-scaling-stroke" stroke-width="2.62" stroke-linecap="round" stroke-linejoin="round" stroke-opacity="1.0">
          <path d="M10 10 7 7" vector-effect="non-scaling-stroke" fill="none" stroke="#f1f5f9"/>
          <path d="m10 14-3 3" vector-effect="non-scaling-stroke" fill="none" stroke="#f1f5f9"/>
          <path d="m14 10 3-3" vector-effect="non-scaling-stroke" fill="none" stroke="#f1f5f9"/>
          <path d="m14 14 3 3" vector-effect="non-scaling-stroke" fill="none" stroke="#f1f5f9"/>
          <path d="M14.205 4.139a4 4 0 1 1 5.439 5.863" vector-effect="non-scaling-stroke" fill="none" stroke="#f1f5f9"/>
          <path d="M19.637 14a4 4 0 1 1-5.432 5.868" vector-effect="non-scaling-stroke" fill="none" stroke="#f1f5f9"/>
          <path d="M4.367 10a4 4 0 1 1 5.438-5.862" vector-effect="non-scaling-stroke" fill="none" stroke="#f1f5f9"/>
          <path d="M9.795 19.862a4 4 0 1 1-5.429-5.873" vector-effect="non-scaling-stroke" fill="none" stroke="#f1f5f9"/>
          <rect x="10" y="8" width="4" height="8" rx="1" vector-effect="non-scaling-stroke" fill="none" stroke="#f1f5f9"/>
        </g>
      </g>
    </g>
  </g>
</svg>
