<?xml version='1.0' encoding='utf-8'?>
<svg xmlns="http://www.w3.org/2000/svg" width="1920" height="1080" viewBox="0 0 1920 1080" data-theme="light">
  <style>
        @font-face {
            font-family: 'Inter';
            src: url('assets/fonts/Inter-Regular.ttf') format('truetype');
            font-weight: 400;
            font-style: normal;
            font-display: swap;
        }
        @font-face {
            font-family: 'Inter';
            src: url('assets/fonts/Inter-Bold.ttf') format('truetype');
            font-weight: 600;
            font-style: normal;
            font-display: swap;
        }
        @font-face {
            font-family: 'Inter';
            src: url('assets/fonts/Inter-Bold.ttf') format('truetype');
            font-weight: 800;
            font-style: normal;
            font-display: swap;
        }
        
:root {
    --background: #f8fafc;
    --panel: #ffffff;
    --primary-text: #0f172a;
    --muted-text: #64748b;
    --inverse-text: #ffffff;
    --border: #e2e8f0;
    --shadow-color: #000000;
    --icon-pad-bg: #1e293b;
    --art-glow: #0891b2;
    --art-glow-opacity: 0.10;
    --art-sheen: #ffffff;
    --art-sheen-opacity: 0.34;
    --art-shadow: #0f172a;
    --art-shadow-opacity: 0.14;
    --art-muted-line: #94a3b8;
    --art-panel-tint: #f1f5f9;
    --font-family: 'Inter', 'Segoe UI', 'Kalam', Roboto, Helvetica, Arial, sans-serif;
    --radius-xl: 16px;
    --font-family-headline: 'Inter', 'Segoe UI', 'Kalam', Roboto, Helvetica, Arial, sans-serif;
    --font-family-body: 'Inter', 'Segoe UI', 'Kalam', Roboto, Helvetica, Arial, sans-serif;
    --font-heading: 'Inter', 'Segoe UI', 'Kalam', Roboto, Helvetica, Arial, sans-serif;
    --font-body: 'Inter', 'Segoe UI', 'Kalam', Roboto, Helvetica, Arial, sans-serif;
    --font-size-h1: 56px;
    --font-size-h2: 40px;
    --font-size-h3: 28px;
    --font-size-body: 24px;
    --font-size-caption: 18px;
    --secondary-text: var(--muted-text);
    --panel-border: var(--border);
    --font-weight-normal: 400;
    --font-weight-medium: 500;
    --font-weight-semibold: 600;
    --font-weight-bold: 700;
    --spacing-gutter-pct: 0.07;
    --spacing-top-pct: 0.15;
    --spacing-bottom-pct: 0.07;
    --spacing-title-y-pct: 0.055;
    --accent-1: #3b82f6;
    --accent-2: #22c55e;
    --accent-3: #f59e0b;
    --accent-4: #ec4899;
    --accent-5: #8b5cf6;
    --accent-6: #06b6d4;
}
:root[data-theme="dark"] {
    --background: #0f172a;
    --panel: #1e293b;
    --primary-text: #f1f5f9;
    --muted-text: #94a3b8;
    --inverse-text: #0f172a;
    --border: #334155;
    --shadow-color: #000000;
    --icon-pad-bg: #1e293b;
    --art-glow: #7dd3fc;
    --art-glow-opacity: 0.18;
    --art-sheen: #ffffff;
    --art-sheen-opacity: 0.18;
    --art-shadow: #000000;
    --art-shadow-opacity: 0.28;
    --art-muted-line: #64748b;
    --art-panel-tint: #1e293b;
    --accent-1: #93c5fd;
    --accent-2: #86efac;
    --accent-3: #fcd34d;
    --accent-4: #f9a8d4;
    --accent-5: #c4b5fd;
    --accent-6: #a5f3fc;
}
:root[data-theme="light"] {
    --background: #f8fafc;
    --panel: #ffffff;
    --primary-text: #0f172a;
    --muted-text: #64748b;
    --inverse-text: #ffffff;
    --border: #e2e8f0;
    --shadow-color: #000000;
    --icon-pad-bg: #1e293b;
    --art-glow: #0891b2;
    --art-glow-opacity: 0.10;
    --art-sheen: #ffffff;
    --art-sheen-opacity: 0.34;
    --art-shadow: #0f172a;
    --art-shadow-opacity: 0.14;
    --art-muted-line: #94a3b8;
    --art-panel-tint: #f1f5f9;
    --accent-1: #3b82f6;
    --accent-2: #22c55e;
    --accent-3: #f59e0b;
    --accent-4: #ec4899;
    --accent-5: #8b5cf6;
    --accent-6: #06b6d4;
}</style>
  <rect x="0" y="0" width="1.92E+3" height="1.08E+3" fill="#252a34" stroke="none" id="programmatic_background"/>
  <line id="HEADER_DECOR" x1="960.0" x2="1080.0" y1="107.0" y2="107.0" stroke="var(--accent-1)" stroke-width="6" stroke-linecap="round"/>
  <defs>
    <pattern id="svg7f0e1d12-napkin-hatch" patternUnits="userSpaceOnUse" width="12" height="12">
      <path d="M -3 12 L 12 -3 M 0 15 L 15 0" fill="none" stroke="var(--primary-text)" stroke-width="1" stroke-opacity="0.05"/>
    </pattern>
    <filter id="svg7f0e1d12-shadow" x="-30%" y="-30%" width="160%" height="160%">
      <feDropShadow dx="0" dy="2" stdDeviation="3" flood-color="#000000" flood-opacity="0.08"/>
      <feDropShadow dx="0" dy="6" stdDeviation="10" flood-color="#000000" flood-opacity="0.12"/>
    </filter>
    <filter id="svg7f0e1d12-soft-glow" x="-40%" y="-40%" width="180%" height="180%">
      <feDropShadow dx="0" dy="0" stdDeviation="6" flood-color="#000000" flood-opacity="0.12"/>
    </filter>
    <radialGradient id="svg7f0e1d12-universal-edge-vignette" cx="50%" cy="50%" r="72%">
      <stop offset="0%" stop-color="var(--background)" stop-opacity="0"/>
      <stop offset="72%" stop-color="var(--background)" stop-opacity="0.12"/>
      <stop offset="100%" stop-color="var(--primary-text)" stop-opacity="0.08"/>
    </radialGradient>
    <linearGradient id="svg7f0e1d12-universal-surface-sheen" x1="0%" y1="0%" x2="100%" y2="100%">
      <stop offset="0%" stop-color="var(--art-sheen)" stop-opacity="var(--art-sheen-opacity)"/>
      <stop offset="46%" stop-color="var(--art-sheen)" stop-opacity="0.035"/>
      <stop offset="100%" stop-color="var(--art-panel-tint)" stop-opacity="0.14"/>
    </linearGradient>
    <radialGradient id="svg7f0e1d12-universal-icon-aura" cx="50%" cy="42%" r="64%">
      <stop offset="0%" stop-color="var(--art-glow)" stop-opacity="var(--art-glow-opacity)"/>
      <stop offset="100%" stop-color="var(--background)" stop-opacity="0"/>
    </radialGradient>
    <filter id="svg7f0e1d12-text-glow" x="-20%" y="-20%" width="140%" height="140%">
      <feDropShadow dx="0" dy="0" stdDeviation="2" flood-color="#000000" flood-opacity="0.4"/>
    </filter>
    <marker id="svg7f0e1d12-arrowhead" markerWidth="10" markerHeight="7" refX="9" refY="3.5" orient="auto" markerUnits="strokeWidth">
      <polygon points="0 0, 10 3.5, 0 7" fill="var(--muted-text)" opacity="0.6"/>
    </marker>
  </defs>
  <rect width="100%" height="100%" fill="var(--background)" id="CANVAS_BG"/>
  <rect width="100%" height="100%" fill="url(#svg7f0e1d12-napkin-hatch)"/>
  <rect id="UNIVERSAL_EDGE_VIGNETTE" width="100%" height="100%" fill="url(#svg7f0e1d12-universal-edge-vignette)" opacity="0.62"/>
  <text id="TITLE" x="960.0" y="59" text-anchor="middle" font-weight="800" font-size="58" fill="#0f172a" style="font-size: 60px; font-family: Inter, Segoe UI, Kalam, Roboto, Helvetica, Arial, sans-serif; font-weight: 700; letter-spacing:-1.2px;" data-final-font-size="60">
    <tspan x="960.0" dy="68.00px">Weak Records vs Unresolved Cases</tspan>
  </text>
  <rect id="TITLE_FRAME" x="134" y="44" width="1652" height="110" fill="none"/>
  <g id="DIAGRAM_SCALER">
    <line x1="960" y1="220" x2="960" y2="970" stroke="var(--border)" stroke-width="8" stroke-linecap="round" opacity="0.75"/>
    <line x1="960" y1="289.2" x2="914" y2="289.2" stroke="var(--accent-1)" stroke-width="4" stroke-linecap="round" opacity="0.55"/>
    <circle cx="960" cy="289.2" r="9" fill="var(--accent-1)" opacity="0.95" filter="url(#svg7f0e1d12-soft-glow)"/>
    <rect id="ITEM_1_BG" x="254.0" y="228.0" width="660.0" height="122.4" rx="61.2" fill="var(--panel)" stroke="var(--accent-1)" stroke-width="3" filter="url(#svg7f0e1d12-shadow)"/>
    <rect x="894.0" y="228.0" width="20" height="122.4" rx="10" fill="var(--accent-1)" fill-opacity="0.14"/>
    <circle id="ITEM_1_PAD" cx="828.0" cy="289.2" r="42" fill="var(--icon-pad-bg)" stroke="var(--primary-text)" opacity="0.92" fill-opacity="0.9" stroke-width="2"/>
    <circle id="ITEM_1_PAD_INNER" cx="828.0" cy="289.2" r="32.76" fill="var(--accent-3)" fill-opacity="0.22"/>
    <circle cx="828.0" cy="289.2" r="33.6" fill="none" stroke="var(--accent-1)" stroke-width="3" stroke-dasharray="6 4"/>
    <g id="ITEM_1_ICON" transform="translate(802.0, 263.2)" data-icon-size="52" stroke-dasharray="6 4">
      <g transform="translate(-9.684999999999997,-11.439999999999998) scale(2.34)">
        <path d="M5 26H28V29C28 29.5523 27.5523 30 27 30H6C5.44772 30 5 29.5523 5 29V26Z" fill="#F9C23C"/>
        <path d="M6 26H27V27.5C27 28.3284 26.3284 29 25.5 29H7.5C6.67157 29 6 28.3284 6 27.5V26Z" fill="#D3D3D3"/>
        <path d="M5 3C5 2.44772 5.44772 2 6 2H27C27.5523 2 28 2.44772 28 3V26C28 26.5523 27.5523 27 27 27H6C5.44772 27 5 26.5523 5 26V3Z" fill="#FCD53F"/>
        <path d="M11 9C11 8.44772 11.4477 8 12 8H20C20.5523 8 21 8.44772 21 9V11C21 11.5523 20.5523 12 20 12H12C11.4477 12 11 11.5523 11 11V9Z" fill="#FFB02E"/>
        <path d="M7.48228 6C7.36097 5.15193 6.63162 4.5 5.75 4.5C4.7835 4.5 4 5.2835 4 6.25C4 6.9481 4.40876 7.55073 5 7.83159V8.33697C5.24076 8.28009 5.49187 8.25 5.75 8.25C7.46081 8.25 8.86287 9.57189 8.99053 11.25H9C9 11.3485 8.9806 11.446 8.94291 11.537C8.90522 11.628 8.84997 11.7107 8.78033 11.7803C8.71069 11.85 8.62801 11.9052 8.53701 11.9429C8.44602 11.9806 8.34849 12 8.25 12C8.15151 12 8.05398 11.9806 7.96299 11.9429C7.87199 11.9052 7.78931 11.85 7.71967 11.7803C7.65003 11.7107 7.59478 11.628 7.55709 11.537C7.5194 11.446 7.5 11.3485 7.5 11.25H7.48228C7.36097 10.4019 6.63162 9.75 5.75 9.75C4.7835 9.75 4 10.5335 4 11.5C4 12.1981 4.40876 12.8007 5 13.0816V13.587C5.24076 13.5301 5.49187 13.5 5.75 13.5C7.46081 13.5 8.86287 14.8219 8.99053 16.5H9C9 16.5985 8.9806 16.696 8.94291 16.787C8.90522 16.878 8.84997 16.9607 8.78033 17.0303C8.71069 17.1 8.62801 17.1552 8.53701 17.1929C8.44602 17.2306 8.34849 17.25 8.25 17.25C8.15151 17.25 8.05398 17.2306 7.96299 17.1929C7.87199 17.1552 7.78931 17.1 7.71967 17.0303C7.65003 16.9607 7.59478 16.878 7.55709 16.787C7.5194 16.696 7.5 16.5985 7.5 16.5H7.48228C7.36097 15.6519 6.63162 15 5.75 15C4.7835 15 4 15.7835 4 16.75C4 17.4481 4.40876 18.0507 5 18.3316V18.837C5.24076 18.7801 5.49187 18.75 5.75 18.75C7.46081 18.75 8.86287 20.0719 8.99053 21.75H9C9 21.8485 8.9806 21.946 8.94291 22.037C8.90522 22.128 8.84997 22.2107 8.78033 22.2803C8.71069 22.35 8.62801 22.4052 8.53701 22.4429C8.44602 22.4806 8.34849 22.5 8.25 22.5C8.15151 22.5 8.05398 22.4806 7.96299 22.4429C7.87199 22.4052 7.78931 22.35 7.71967 22.2803C7.65003 22.2107 7.59478 22.128 7.55709 22.037C7.5194 21.946 7.5 21.8485 7.5 21.75H7.48228C7.36097 20.9019 6.63162 20.25 5.75 20.25C4.7835 20.25 4 21.0335 4 22C4 22.6981 4.40876 23.3007 5 23.5816V25.163C3.56665 24.8245 2.5 23.5368 2.5 22C2.5 20.9218 3.02505 19.9662 3.83341 19.375C3.02505 18.7838 2.5 17.8282 2.5 16.75C2.5 15.6718 3.02505 14.7162 3.83341 14.125C3.02505 13.5338 2.5 12.5782 2.5 11.5C2.5 10.4218 3.02505 9.46622 3.83341 8.875C3.02505 8.28378 2.5 7.32821 2.5 6.25C2.5 4.45507 3.95507 3 5.75 3C7.46081 3 8.86287 4.32189 8.99053 6H9C9 6.09849 8.9806 6.19602 8.94291 6.28701C8.90522 6.37801 8.84997 6.46069 8.78033 6.53033C8.71069 6.59997 8.62801 6.65522 8.53701 6.69291C8.44602 6.7306 8.34849 6.75 8.25 6.75C8.15151 6.75 8.05398 6.7306 7.96299 6.69291C7.87199 6.65522 7.78931 6.59997 7.71967 6.53033C7.65003 6.46069 7.59478 6.37801 7.55709 6.28701C7.5194 6.19602 7.5 6.09849 7.5 6H7.48228Z" fill="#9B9B9B"/>
      </g>
    </g>
    <text id="ITEM_1_HEAD" x="710.0" y="247.2" text-anchor="end" font-weight="bold" font-size="28" fill="var(--primary-text)" data-bg-id="ITEM_1_BG" fill-opacity="1.0" style="font-size: 30px; font-family: Inter, Segoe UI, Kalam, Roboto, Helvetica, Arial, sans-serif; font-weight: 700; letter-spacing:-0.4px;" data-final-font-size="30">
      <tspan x="710.0" dy="28.25px">Initial Report</tspan>
    </text>
    <rect id="ITEM_1_HEAD_FRAME" x="290.0" y="247.2" width="420.0" height="40" fill="none"/>
    <text id="ITEM_1_BODY" x="710.0" y="291.2" text-anchor="end" font-size="20" fill="var(--primary-text)" data-bg-id="ITEM_1_BG" style="font-size: 26px; font-family: Inter, Segoe UI, Kalam, Roboto, Helvetica, Arial, sans-serif; font-weight: 400;" data-final-font-size="26">
      <tspan x="710.0" dy="20.84px">Brief entries provide only date</tspan>
      <tspan x="710.0" dy="29.90px">and short description</tspan>
    </text>
    <rect id="ITEM_1_BODY_FRAME" x="290.0" y="291.2" width="420.0" height="60" fill="none"/>
    <line x1="960" y1="439.6" x2="1006" y2="439.6" stroke="var(--accent-2)" stroke-width="4" stroke-linecap="round" opacity="0.55"/>
    <circle cx="960" cy="439.6" r="9" fill="var(--accent-2)" opacity="0.95" filter="url(#svg7f0e1d12-soft-glow)"/>
    <rect id="ITEM_2_BG" x="1006.0" y="378.4" width="660.0" height="122.4" rx="61.2" fill="var(--panel)" stroke="var(--accent-2)" stroke-width="3" filter="url(#svg7f0e1d12-shadow)"/>
    <rect x="1006.0" y="378.4" width="20" height="122.4" rx="10" fill="var(--accent-2)" fill-opacity="0.14"/>
    <circle id="ITEM_2_PAD" cx="1092.0" cy="439.6" r="42" fill="var(--icon-pad-bg)" stroke="var(--primary-text)" opacity="0.92" fill-opacity="0.9" stroke-width="2"/>
    <circle id="ITEM_2_PAD_INNER" cx="1092.0" cy="439.6" r="32.76" fill="var(--accent-4)" fill-opacity="0.22"/>
    <circle cx="1092.0" cy="439.6" r="33.6" fill="none" stroke="var(--accent-2)" stroke-width="3" stroke-dasharray="6 4"/>
    <g id="ITEM_2_ICON" transform="translate(1066.0, 413.6)" data-icon-size="52" stroke-dasharray="6 4">
      <g transform="translate(-9.536271186440676,-9.536271186440676) scale(2.9613559322033898)" vector-effect="non-scaling-stroke" stroke-width="2.34" stroke-linecap="round" stroke-linejoin="round" stroke-opacity="1.0">
        <path d="M19.07 4.93A10 10 0 0 0 6.99 3.34" vector-effect="non-scaling-stroke" fill="none" stroke="#f1f5f9"/>
        <path d="M4 6h.01" vector-effect="non-scaling-stroke" fill="none" stroke="#f1f5f9"/>
        <path d="M2.29 9.62A10 10 0 1 0 21.31 8.35" vector-effect="non-scaling-stroke" fill="none" stroke="#f1f5f9"/>
        <path d="M16.24 7.76A6 6 0 1 0 8.23 16.67" vector-effect="non-scaling-stroke" fill="none" stroke="#f1f5f9"/>
        <path d="M12 18h.01" vector-effect="non-scaling-stroke" fill="none" stroke="#f1f5f9"/>
        <path d="M17.99 11.66A6 6 0 0 1 15.77 16.67" vector-effect="non-scaling-stroke" fill="none" stroke="#f1f5f9"/>
        <circle cx="12" cy="12" r="2" vector-effect="non-scaling-stroke" fill="none" stroke="#f1f5f9"/>
        <path d="m13.41 10.59 5.66-5.66" vector-effect="non-scaling-stroke" fill="none" stroke="#f1f5f9"/>
      </g>
    </g>
    <text id="ITEM_2_HEAD" x="1162.0" y="397.6" text-anchor="start" font-weight="bold" font-size="28" fill="var(--primary-text)" data-bg-id="ITEM_2_BG" fill-opacity="1.0" style="font-size: 30px; font-family: Inter, Segoe UI, Kalam, Roboto, Helvetica, Arial, sans-serif; font-weight: 700; letter-spacing:-0.4px;" data-final-font-size="30">
      <tspan x="1162.0" dy="28.25px">Contextual Check</tspan>
    </text>
    <rect id="ITEM_2_HEAD_FRAME" x="1162.0" y="397.6" width="420.0" height="40" fill="none"/>
    <text id="ITEM_2_BODY" x="1162.0" y="441.6" text-anchor="start" font-size="20" fill="var(--primary-text)" data-bg-id="ITEM_2_BG" style="font-size: 26px; font-family: Inter, Segoe UI, Kalam, Roboto, Helvetica, Arial, sans-serif; font-weight: 400;" data-final-font-size="26">
      <tspan x="1162.0" dy="20.84px">Verify against aircraft movements</tspan>
      <tspan x="1162.0" dy="29.90px">and satellite passes</tspan>
    </text>
    <rect id="ITEM_2_BODY_FRAME" x="1162.0" y="441.6" width="420.0" height="60" fill="none"/>
    <line x1="960" y1="590.0" x2="914" y2="590.0" stroke="var(--accent-3)" stroke-width="4" stroke-linecap="round" opacity="0.55"/>
    <circle cx="960" cy="590.0" r="9" fill="var(--accent-3)" opacity="0.95" filter="url(#svg7f0e1d12-soft-glow)"/>
    <rect id="ITEM_3_BG" x="254.0" y="528.8" width="660.0" height="122.4" rx="61.2" fill="var(--panel)" stroke="var(--accent-3)" stroke-width="3" filter="url(#svg7f0e1d12-shadow)"/>
    <rect x="894.0" y="528.8" width="20" height="122.4" rx="10" fill="var(--accent-3)" fill-opacity="0.14"/>
    <circle id="ITEM_3_PAD" cx="828.0" cy="590.0" r="42" fill="var(--icon-pad-bg)" stroke="var(--primary-text)" opacity="0.92" fill-opacity="0.9" stroke-width="2"/>
    <circle id="ITEM_3_PAD_INNER" cx="828.0" cy="590.0" r="32.76" fill="var(--accent-5)" fill-opacity="0.22"/>
    <circle cx="828.0" cy="590.0" r="33.6" fill="none" stroke="var(--accent-3)" stroke-width="3" stroke-dasharray="6 4"/>
    <g id="ITEM_3_ICON" transform="translate(802.0, 564.0)" data-icon-size="52" stroke-dasharray="6 4">
      <g transform="translate(-8.943999999999997,-8.943999999999996) scale(2.1839999999999997)">
        <path d="M27.938 8.83821C24.0423 5.04133 17.8344 5.05797 13.9753 8.86406C13.4392 8.67001 12.8612 8.56433 12.26 8.56433C10.458 8.56433 8.87859 9.50994 7.98809 10.929C4.08596 11.1722 1 14.4106 1 18.3743C1 20.1277 1.61099 21.7416 2.62059 23.0183C3.99219 24.8117 6.14877 25.9643 8.58 25.9643H21.27C24.4212 25.9643 27.2042 24.4125 28.9045 22.0385C31.9165 18.083 31.5813 12.4038 27.9394 8.83964L27.938 8.83821Z" fill="#B4ACBC"/>
        <path d="M14.55 9.70434C18.01 6.15434 23.69 6.09434 27.24 9.55434C30.52 12.7643 30.82 17.8843 28.1 21.4443C26.58 23.5743 24.09 24.9643 21.27 24.9643H8.58C6.47 24.9643 4.6 23.9643 3.41 22.4043C2.53 21.2943 2 19.8943 2 18.3743C2 14.8043 4.89 11.9143 8.46 11.9143C8.50303 11.9143 8.54595 11.9148 8.58877 11.9156C9.22825 10.5277 10.6316 9.56433 12.26 9.56433C12.9685 9.56433 13.6345 9.74673 14.2134 10.0671C14.3215 9.94392 14.4337 9.82294 14.55 9.70434Z" fill="#F3EEF8"/>
      </g>
    </g>
    <text id="ITEM_3_HEAD" x="710.0" y="548.0" text-anchor="end" font-weight="bold" font-size="28" fill="var(--primary-text)" data-bg-id="ITEM_3_BG" fill-opacity="1.0" style="font-size: 30px; font-family: Inter, Segoe UI, Kalam, Roboto, Helvetica, Arial, sans-serif; font-weight: 700; letter-spacing:-0.4px;" data-final-font-size="30">
      <tspan x="710.0" dy="28.25px">Environmental Filter</tspan>
    </text>
    <rect id="ITEM_3_HEAD_FRAME" x="290.0" y="548.0" width="420.0" height="40" fill="none"/>
    <text id="ITEM_3_BODY" x="710.0" y="592.0" text-anchor="end" font-size="20" fill="var(--primary-text)" data-bg-id="ITEM_3_BG" style="font-size: 26px; font-family: Inter, Segoe UI, Kalam, Roboto, Helvetica, Arial, sans-serif; font-weight: 400;" data-final-font-size="26">
      <tspan x="710.0" dy="20.84px">Rule out weather and atmospheric</tspan>
      <tspan x="710.0" dy="29.90px">effects on visibility</tspan>
    </text>
    <rect id="ITEM_3_BODY_FRAME" x="290.0" y="592.0" width="420.0" height="60" fill="none"/>
    <line x1="960" y1="740.4" x2="1006" y2="740.4" stroke="var(--accent-4)" stroke-width="4" stroke-linecap="round" opacity="0.55"/>
    <circle cx="960" cy="740.4" r="9" fill="var(--accent-4)" opacity="0.95" filter="url(#svg7f0e1d12-soft-glow)"/>
    <rect id="ITEM_4_BG" x="1006.0" y="679.2" width="660.0" height="122.4" rx="61.2" fill="var(--panel)" stroke="var(--accent-4)" stroke-width="3" filter="url(#svg7f0e1d12-shadow)"/>
    <rect x="1006.0" y="679.2" width="20" height="122.4" rx="10" fill="var(--accent-4)" fill-opacity="0.14"/>
    <circle id="ITEM_4_PAD" cx="1092.0" cy="740.4" r="42" fill="var(--icon-pad-bg)" stroke="var(--primary-text)" opacity="0.92" fill-opacity="0.9" stroke-width="2"/>
    <circle id="ITEM_4_PAD_INNER" cx="1092.0" cy="740.4" r="32.76" fill="var(--accent-6)" fill-opacity="0.22"/>
    <circle cx="1092.0" cy="740.4" r="33.6" fill="none" stroke="var(--accent-4)" stroke-width="3" stroke-dasharray="6 4"/>
    <g id="ITEM_4_ICON" transform="translate(1066.0, 714.4)" data-icon-size="52" stroke-dasharray="6 4">
      <g transform="translate(-7.585882352941172,-9.512941176470587) scale(0.1376470588235294)" vector-effect="non-scaling-stroke" fill="#f1f5f9" fill-opacity="1.0" stroke="none">
        <path fill="#f1f5f9" d="M48.32 20.4v24.47h99.88V20.4zM372 24.68c-30.3.91-53 48.3-54.3 75.09c0 21.53 7.4 40.83 18.7 54.53c-61.6 11.6-66.3 115.4-66.3 188.3h30.3l-10.1-11.4c-.4-51.8 1.8-95.2 24-135.5c-6.1 99.9 3.2 208.7 9.9 299.1h85.2l-65-11.8c-11.9-104.4-18.9-205.7-4.5-308.5c0 0 9.5-6.1 24.3-13.4c-14.2-12.1-23.6-33.3-23.6-57.4c0-37.59 22.8-68.04 50.9-68.04c8.9 0 17.2 3.04 24.5 8.39c-10.4-11.98-24.3-19.26-39.4-19.26c-1.6 0-3.2-.14-4.6-.11M43.24 63.56C29.11 81.97 20.35 107.5 20.35 135.8c0 29.9 9.79 56.8 25.36 75.4H149.1c15.6-18.6 25.3-45.5 25.3-75.4c0-28.3-8.7-53.83-22.8-72.24zM441.2 196l1.7 147.2l22.3-.3c-4.9-51.7-3.2-107.2-24-146.9M48.32 229.8v24.5h99.88v-24.5z" vector-effect="non-scaling-stroke" stroke="none"/>
      </g>
    </g>
    <text id="ITEM_4_HEAD" x="1162.0" y="698.4" text-anchor="start" font-weight="bold" font-size="28" fill="var(--primary-text)" data-bg-id="ITEM_4_BG" fill-opacity="1.0" style="font-size: 30px; font-family: Inter, Segoe UI, Kalam, Roboto, Helvetica, Arial, sans-serif; font-weight: 700; letter-spacing:-0.4px;" data-final-font-size="30">
      <tspan x="1162.0" dy="28.25px">Common Explanation</tspan>
    </text>
    <rect id="ITEM_4_HEAD_FRAME" x="1162.0" y="698.4" width="420.0" height="40" fill="none"/>
    <text id="ITEM_4_BODY" x="1162.0" y="742.4" text-anchor="start" font-size="20" fill="var(--primary-text)" data-bg-id="ITEM_4_BG" style="font-size: 26px; font-family: Inter, Segoe UI, Kalam, Roboto, Helvetica, Arial, sans-serif; font-weight: 400;" data-final-font-size="26">
      <tspan x="1162.0" dy="20.84px">Identify if lights match known</tspan>
      <tspan x="1162.0" dy="29.90px">Chinese lantern patterns</tspan>
    </text>
    <rect id="ITEM_4_BODY_FRAME" x="1162.0" y="742.4" width="420.0" height="60" fill="none"/>
    <line x1="960" y1="890.8" x2="914" y2="890.8" stroke="var(--accent-5)" stroke-width="4" stroke-linecap="round" opacity="0.55"/>
    <circle cx="960" cy="890.8" r="9" fill="var(--accent-5)" opacity="0.95" filter="url(#svg7f0e1d12-soft-glow)"/>
    <rect id="ITEM_5_BG" x="254.0" y="829.6" width="660.0" height="122.4" rx="61.2" fill="var(--panel)" stroke="var(--accent-5)" stroke-width="3" filter="url(#svg7f0e1d12-shadow)"/>
    <rect x="894.0" y="829.6" width="20" height="122.4" rx="10" fill="var(--accent-5)" fill-opacity="0.14"/>
    <circle id="ITEM_5_PAD" cx="828.0" cy="890.8" r="42" fill="var(--icon-pad-bg)" stroke="var(--primary-text)" opacity="0.92" fill-opacity="0.9" stroke-width="2"/>
    <circle id="ITEM_5_PAD_INNER" cx="828.0" cy="890.8" r="32.76" fill="var(--accent-1)" fill-opacity="0.22"/>
    <circle cx="828.0" cy="890.8" r="33.6" fill="none" stroke="var(--accent-5)" stroke-width="3" stroke-dasharray="6 4"/>
    <g id="ITEM_5_ICON" transform="translate(802.0, 864.8)" data-icon-size="52" stroke-dasharray="6 4">
      <g transform="translate(-11.439999999999998,-13.779999999999998) scale(2.34)">
        <path d="M15.385 7.39062L12.9075 4.915C12.3219 4.32875 11.5275 4 10.6987 4H4.125C2.95125 4 2 4.95125 2 6.125V13.5H12.985H30V10.1375C30 8.96375 29.0488 8.0125 27.875 8.0125H16.8875C16.3237 8.0125 15.7838 7.78875 15.385 7.39062Z" fill="#FFB02E"/>
        <path d="M27.875 30H4.125C2.95125 30 2 29.0545 2 27.8878V13.1122C2 11.9455 2.95125 11 4.125 11H27.875C29.0488 11 30 11.9455 30 13.1122V27.8878C30 29.0545 29.0488 30 27.875 30Z" fill="#FCD53F"/>
      </g>
    </g>
    <text id="ITEM_5_HEAD" x="710.0" y="848.8" text-anchor="end" font-weight="bold" font-size="28" fill="var(--primary-text)" data-bg-id="ITEM_5_BG" fill-opacity="1.0" style="font-size: 30px; font-family: Inter, Segoe UI, Kalam, Roboto, Helvetica, Arial, sans-serif; font-weight: 700; letter-spacing:-0.4px;" data-final-font-size="30">
      <tspan x="710.0" dy="28.25px">Final Classification</tspan>
    </text>
    <rect id="ITEM_5_HEAD_FRAME" x="290.0" y="848.8" width="420.0" height="40" fill="none"/>
    <text id="ITEM_5_BODY" x="710.0" y="892.8" text-anchor="end" font-size="20" fill="var(--primary-text)" data-bg-id="ITEM_5_BG" style="font-size: 26px; font-family: Inter, Segoe UI, Kalam, Roboto, Helvetica, Arial, sans-serif; font-weight: 400;" data-final-font-size="26">
      <tspan x="710.0" dy="20.84px">Determine if data supports a</tspan>
      <tspan x="710.0" dy="29.90px">genuinely puzzling mystery</tspan>
    </text>
    <rect id="ITEM_5_BODY_FRAME" x="290.0" y="892.8" width="420.0" height="60" fill="none"/>
  </g>
</svg>
